<svg xmlns="http://www.w3.org/2000/svg" xml:space="preserve" width="100%" height="100%" fill-rule="evenodd" stroke-linecap="round" stroke-linejoin="round" stroke-miterlimit="1.5" clip-rule="evenodd" version="1.1" viewBox="0 0 1024 1024"><style>.b rect,.g rect,.r rect{width:20.715px;height:62.146px;stroke:gray;stroke-width:4.17px;opacity:.8}.r rect{fill:red}.g rect{fill:#0f0}.b rect{fill:#00f}.button,.frame{fill:#595959;fill-rule:nonzero}.button{fill:#888}@media (prefers-color-scheme:dark){.frame{fill:#f5f5f7}}</style><g id="rgb" mask="url(#mask)"><g class="r"><rect x="200.561" y="184.463"/><rect x="221.276" y="246.609"/><rect x="200.561" y="308.754"/><rect x="221.276" y="370.9"/><rect x="200.561" y="433.046"/><rect x="221.276" y="495.191"/><rect x="200.561" y="557.337"/><rect x="221.276" y="619.483"/><rect x="324.852" y="184.463"/><rect x="345.567" y="246.609"/><rect x="262.706" y="184.463"/><rect x="283.422" y="246.609"/><rect x="324.852" y="308.754"/><rect x="345.567" y="370.9"/><rect x="262.706" y="308.754"/><rect x="283.422" y="370.9"/><rect x="324.852" y="433.046"/><rect x="345.567" y="495.191"/><rect x="262.706" y="433.046"/><rect x="283.422" y="495.191"/><rect x="324.852" y="557.337"/><rect x="345.567" y="619.483"/><rect x="262.706" y="557.337"/><rect x="283.422" y="619.483"/><rect x="449.143" y="184.463"/><rect x="469.858" y="246.609"/><rect x="386.998" y="184.463"/><rect x="407.713" y="246.609"/><rect x="449.143" y="308.754"/><rect x="469.858" y="370.9"/><rect x="386.998" y="308.754"/><rect x="407.713" y="370.9"/><rect x="449.143" y="433.046"/><rect x="386.998" y="433.046"/><rect x="407.713" y="495.191"/><rect x="449.143" y="557.337"/><rect x="386.998" y="557.337"/><rect x="407.713" y="619.483"/><rect x="573.435" y="184.463"/><rect x="594.15" y="246.609"/><rect x="511.289" y="184.463"/><rect x="532.004" y="246.609"/><rect x="594.15" y="370.9"/><rect x="511.289" y="308.754"/><rect x="532.004" y="370.9"/><rect x="573.435" y="433.046"/><rect x="594.15" y="495.191"/><rect x="511.289" y="433.046"/><rect x="532.004" y="495.191"/><rect x="573.435" y="557.337"/><rect x="594.15" y="619.483"/><rect x="511.289" y="557.337"/><rect x="532.004" y="619.483"/><rect x="697.726" y="184.463"/><rect x="718.441" y="246.609"/><rect x="635.58" y="184.463"/><rect x="656.295" y="246.609"/><rect x="718.441" y="370.9"/><rect x="656.295" y="370.9"/><rect x="697.726" y="433.046"/><rect x="718.441" y="495.191"/><rect x="635.58" y="433.046"/><rect x="656.295" y="495.191"/><rect x="718.441" y="619.483"/><rect x="635.58" y="557.337"/><rect x="656.295" y="619.483"/><rect x="822.017" y="184.463"/><rect x="759.871" y="184.463"/><rect x="780.587" y="246.609"/><rect x="822.017" y="433.046"/><rect x="780.587" y="370.9"/><rect x="759.871" y="433.046"/><rect x="780.587" y="495.191"/><rect x="822.017" y="557.337"/><rect x="842.732" y="619.483"/><rect x="759.871" y="557.337"/><rect x="780.587" y="619.483"/><rect x="573.435" y="681.628"/><rect x="594.15" y="743.774"/><rect x="511.289" y="681.628"/><rect x="532.004" y="743.774"/><rect x="718.441" y="743.774"/><rect x="635.58" y="681.628"/><rect x="656.295" y="743.774"/><rect x="822.017" y="681.628"/><rect x="842.732" y="743.774"/><rect x="759.871" y="681.628"/><rect x="780.587" y="743.774"/><rect x="822.017" y="805.919"/><rect x="759.871" y="805.919"/></g><g class="g"><rect x="200.561" y="246.609"/><rect x="221.276" y="184.463"/><rect x="200.561" y="370.9"/><rect x="221.276" y="308.754"/><rect x="200.561" y="495.191"/><rect x="221.276" y="433.046"/><rect x="200.561" y="619.483"/><rect x="221.276" y="557.337"/><rect x="324.852" y="246.609"/><rect x="345.567" y="184.463"/><rect x="262.706" y="246.609"/><rect x="283.422" y="184.463"/><rect x="324.852" y="370.9"/><rect x="345.567" y="308.754"/><rect x="262.706" y="370.9"/><rect x="283.422" y="308.754"/><rect x="324.852" y="495.191"/><rect x="345.567" y="433.046"/><rect x="262.706" y="495.191"/><rect x="283.422" y="433.046"/><rect x="324.852" y="619.483"/><rect x="345.567" y="557.337"/><rect x="262.706" y="619.483"/><rect x="283.422" y="557.337"/><rect x="449.143" y="246.609"/><rect x="469.858" y="184.463"/><rect x="386.998" y="246.609"/><rect x="407.713" y="184.463"/><rect x="449.143" y="370.9"/><rect x="469.858" y="308.754"/><rect x="386.998" y="370.9"/><rect x="407.713" y="308.754"/><rect x="449.143" y="495.191"/><rect x="386.998" y="495.191"/><rect x="407.713" y="433.046"/><rect x="449.143" y="619.483"/><rect x="386.998" y="619.483"/><rect x="407.713" y="557.337"/><rect x="573.435" y="246.609"/><rect x="594.15" y="184.463"/><rect x="511.289" y="246.609"/><rect x="532.004" y="184.463"/><rect x="573.435" y="370.9"/><rect x="511.289" y="370.9"/><rect x="532.004" y="308.754"/><rect x="573.435" y="495.191"/><rect x="594.15" y="433.046"/><rect x="511.289" y="495.191"/><rect x="532.004" y="433.046"/><rect x="573.435" y="619.483"/><rect x="594.15" y="557.337"/><rect x="511.289" y="619.483"/><rect x="532.004" y="557.337"/><rect x="697.726" y="246.609"/><rect x="718.441" y="184.463"/><rect x="635.58" y="246.609"/><rect x="656.295" y="184.463"/><rect x="697.726" y="370.9"/><rect x="635.58" y="370.9"/><rect x="697.726" y="495.191"/><rect x="718.441" y="433.046"/><rect x="635.58" y="495.191"/><rect x="656.295" y="433.046"/><rect x="718.441" y="557.337"/><rect x="635.58" y="619.483"/><rect x="656.295" y="557.337"/><rect x="822.017" y="246.609"/><rect x="759.871" y="246.609"/><rect x="780.587" y="184.463"/><rect x="822.017" y="370.9"/><rect x="759.871" y="370.9"/><rect x="759.871" y="495.191"/><rect x="822.017" y="495.191"/><rect x="780.587" y="433.046"/><rect x="822.017" y="619.483"/><rect x="842.732" y="557.337"/><rect x="759.871" y="619.483"/><rect x="780.587" y="557.337"/><rect x="573.435" y="743.774"/><rect x="594.15" y="681.628"/><rect x="511.289" y="743.774"/><rect x="532.004" y="681.628"/><rect x="718.441" y="681.628"/><rect x="635.58" y="743.774"/><rect x="656.295" y="681.628"/><rect x="718.441" y="805.919"/><rect x="822.017" y="743.774"/><rect x="842.732" y="681.628"/><rect x="759.871" y="743.774"/><rect x="780.587" y="681.628"/><rect x="842.732" y="805.919"/><rect x="780.587" y="805.919"/></g><g class="b"><rect x="241.991" y="184.463"/><rect x="241.991" y="246.609"/><rect x="179.846" y="184.463"/><rect x="179.846" y="246.609"/><rect x="241.991" y="308.754"/><rect x="241.991" y="370.9"/><rect x="179.846" y="308.754"/><rect x="179.846" y="370.9"/><rect x="241.991" y="433.046"/><rect x="241.991" y="495.191"/><rect x="179.846" y="433.046"/><rect x="179.846" y="495.191"/><rect x="241.991" y="557.337"/><rect x="241.991" y="619.483"/><rect x="179.846" y="557.337"/><rect x="179.846" y="619.483"/><rect x="366.282" y="184.463"/><rect x="366.282" y="246.609"/><rect x="304.137" y="184.463"/><rect x="304.137" y="246.609"/><rect x="366.282" y="308.754"/><rect x="366.282" y="370.9"/><rect x="304.137" y="308.754"/><rect x="304.137" y="370.9"/><rect x="366.282" y="433.046"/><rect x="366.282" y="495.191"/><rect x="304.137" y="433.046"/><rect x="304.137" y="495.191"/><rect x="366.282" y="557.337"/><rect x="366.282" y="619.483"/><rect x="304.137" y="557.337"/><rect x="304.137" y="619.483"/><rect x="490.574" y="184.463"/><rect x="490.574" y="246.609"/><rect x="428.428" y="184.463"/><rect x="428.428" y="246.609"/><rect x="490.574" y="308.754"/><rect x="490.574" y="370.9"/><rect x="428.428" y="308.754"/><rect x="428.428" y="370.9"/><rect x="490.574" y="433.046"/><rect x="428.428" y="433.046"/><rect x="428.428" y="495.191"/><rect x="490.574" y="557.337"/><rect x="428.428" y="557.337"/><rect x="428.428" y="619.483"/><rect x="614.865" y="184.463"/><rect x="614.865" y="246.609"/><rect x="552.719" y="184.463"/><rect x="552.719" y="246.609"/><rect x="614.865" y="370.9"/><rect x="552.719" y="308.754"/><rect x="552.719" y="370.9"/><rect x="614.865" y="433.046"/><rect x="614.865" y="495.191"/><rect x="552.719" y="433.046"/><rect x="552.719" y="495.191"/><rect x="614.865" y="557.337"/><rect x="614.865" y="619.483"/><rect x="552.719" y="557.337"/><rect x="552.719" y="619.483"/><rect x="739.156" y="184.463"/><rect x="739.156" y="246.609"/><rect x="677.011" y="184.463"/><rect x="677.011" y="246.609"/><rect x="739.156" y="370.9"/><rect x="677.011" y="370.9"/><rect x="739.156" y="433.046"/><rect x="739.156" y="495.191"/><rect x="677.011" y="433.046"/><rect x="677.011" y="495.191"/><rect x="739.156" y="557.337"/><rect x="739.156" y="619.483"/><rect x="677.011" y="557.337"/><rect x="801.302" y="184.463"/><rect x="801.302" y="246.609"/><rect x="801.302" y="370.9"/><rect x="801.302" y="433.046"/><rect x="801.302" y="495.191"/><rect x="801.302" y="557.337"/><rect x="801.302" y="619.483"/><rect x="614.865" y="681.628"/><rect x="614.865" y="743.774"/><rect x="552.719" y="681.628"/><rect x="552.719" y="743.774"/><rect x="739.156" y="681.628"/><rect x="739.156" y="743.774"/><rect x="739.156" y="805.919"/><rect x="801.302" y="681.628"/><rect x="801.302" y="743.774"/><rect x="801.302" y="805.919"/></g></g><mask id="mask"><path fill="white" d="M0 0h1024v1024H0z"/><g fill="black"><path d="M680.648 923.461H575.416c-64.422 0-116.839-52.405-116.839-116.853V425.873c0-64.448 52.42-116.855 116.839-116.855h254.775c64.422 0 116.839 52.407 116.839 116.855v118.491l-.87 327.466c-.076 28.741-23.419 51.987-52.159 51.945zm.038-52.083 213.391.314.869-327.466V425.873c0-35.721-29.049-64.771-64.755-64.771H575.416c-35.705 0-64.756 29.05-64.756 64.771v380.735c0 35.721 29.049 64.77 64.756 64.77z"/><path d="M862.001 535.033c38.135 0 69.16 31.035 69.16 69.171v235.409c0 38.139-31.018 69.162-69.16 69.162H737.716c-38.148 0-69.164-31.024-69.164-69.162V604.206c0-38.134 31.019-69.173 69.164-69.173zm0 37.083H737.716c-17.694 0-32.08 14.401-32.08 32.09v235.407c0 17.69 14.386 32.079 32.08 32.079h124.285c17.69 0 32.076-14.389 32.076-32.079V604.204c0-17.689-14.387-32.088-32.076-32.088"/></g></mask><path d="M458.521 660.1H191.558c-6.205 0-11.258-5.056-11.258-11.261V214.505c0-6.203 5.054-11.258 11.258-11.258h639.99c6.206 0 11.258 5.055 11.258 11.258v95.124c18.744 2.214 36.307 8.356 51.244 18.454V214.505c0-34.467-28.048-62.504-62.504-62.504H191.558c-34.456 0-62.504 28.036-62.504 62.504v434.333c0 34.468 28.048 62.507 62.504 62.507h214.514v83.787h-33.828c-21.219 0-38.435 17.203-38.435 38.434 0 21.232 17.216 38.435 38.435 38.435h107.894c-13.486-18.966-21.617-41.988-21.617-66.985z" class="frame"/><path d="M669.125 834.833v-55.361h-107.22V425.873c0-7.459 6.055-13.527 13.511-13.527h254.776c7.456 0 13.51 6.068 13.51 13.527v109.434h19.195c11.734 0 22.594 3.389 32.049 8.919V425.873c0-35.721-29.049-64.771-64.755-64.771H575.416c-35.705 0-64.756 29.05-64.756 64.771v380.735c0 35.721 29.049 64.77 64.756 64.77h105.27c-7.056-10.133-11.561-24.253-11.561-36.545" class="frame"/><path d="M862.001 572.116H737.716c-17.694 0-32.08 14.401-32.08 32.09v235.407c0 17.69 14.386 32.079 32.08 32.079h124.285c17.69 0 32.076-14.389 32.076-32.079V604.204c0-17.689-14.387-32.088-32.076-32.088m-117.932 38.433h111.574v203.492H744.069zm55.802 245.554c-3.53 0-6.682-1.428-9.083-3.629-2.73-2.477-4.481-5.958-4.481-9.924 0-7.48 6.057-13.536 13.564-13.536 7.456 0 13.511 6.056 13.511 13.536 0 3.966-1.753 7.445-4.454 9.924-2.404 2.203-5.556 3.629-9.057 3.629" class="frame"/><path d="M799.871 856.103c-3.53 0-6.682-1.428-9.083-3.629-2.73-2.477-4.481-5.958-4.481-9.924 0-7.48 6.057-13.536 13.564-13.536 7.456 0 13.511 6.056 13.511 13.536 0 3.966-1.753 7.445-4.454 9.924-2.404 2.203-5.556 3.629-9.057 3.629" class="button"/></svg>