<svg width="100%" height="100%" viewBox="0 0 1280 1280" version="1.1" xmlns="http://www.w3.org/2000/svg" xmlns:xlink="http://www.w3.org/1999/xlink" xml:space="preserve" xmlns:serif="http://www.serif.com/">
    <style>
        :root {
            background-color: #f5f5f7;
            fill-rule:evenodd;
            clip-rule:evenodd;
            stroke-linecap:round;
            stroke-linejoin:round;
            stroke-miterlimit:1.5;
        }
        .r rect, .g rect, .b rect {
            width: 20.715px;
            height: 62.146px;
            stroke: gray;
            stroke-width: 4.17px;
            opacity: 0.8;
        }
        .r rect { fill: #ff0000; }
        .g rect { fill: #00ff00; }
        .b rect { fill: #0000ff; }
        .frame {
            fill: #595959;
            fill-rule: nonzero;
        }
        .button {
            fill: #888888;
            fill-rule: nonzero;
        }
        @media (prefers-color-scheme: dark) {
            :root { background-color: #000000; }
            .frame { fill: #f5f5f7; }
        }
    </style>
    <g transform="translate(128, 128)">
        <g id="rgb" mask="url(#mask)">
            <g class="r">
                <rect x="200.561" y="184.463"/>
                <rect x="221.276" y="246.609"/>
                <rect x="200.561" y="308.754"/>
                <rect x="221.276" y="370.9"/>
                <rect x="200.561" y="433.046"/>
                <rect x="221.276" y="495.191"/>
                <rect x="200.561" y="557.337"/>
                <rect x="221.276" y="619.483"/>
                <rect x="324.852" y="184.463"/>
                <rect x="345.567" y="246.609"/>
                <rect x="262.706" y="184.463"/>
                <rect x="283.422" y="246.609"/>
                <rect x="324.852" y="308.754"/>
                <rect x="345.567" y="370.9"/>
                <rect x="262.706" y="308.754"/>
                <rect x="283.422" y="370.9"/>
                <rect x="324.852" y="433.046"/>
                <rect x="345.567" y="495.191"/>
                <rect x="262.706" y="433.046"/>
                <rect x="283.422" y="495.191"/>
                <rect x="324.852" y="557.337"/>
                <rect x="345.567" y="619.483"/>
                <rect x="262.706" y="557.337"/>
                <rect x="283.422" y="619.483"/>
                <rect x="449.143" y="184.463"/>
                <rect x="469.858" y="246.609"/>
                <rect x="386.998" y="184.463"/>
                <rect x="407.713" y="246.609"/>
                <rect x="449.143" y="308.754"/>
                <rect x="469.858" y="370.9"/>
                <rect x="386.998" y="308.754"/>
                <rect x="407.713" y="370.9"/>
                <rect x="449.143" y="433.046"/>
                <rect x="386.998" y="433.046"/>
                <rect x="407.713" y="495.191"/>
                <rect x="449.143" y="557.337"/>
                <rect x="386.998" y="557.337"/>
                <rect x="407.713" y="619.483"/>
                <rect x="573.435" y="184.463"/>
                <rect x="594.15" y="246.609"/>
                <rect x="511.289" y="184.463"/>
                <rect x="532.004" y="246.609"/>
                <rect x="594.15" y="370.9"/>
                <rect x="511.289" y="308.754"/>
                <rect x="532.004" y="370.9"/>
                <rect x="573.435" y="433.046"/>
                <rect x="594.15" y="495.191"/>
                <rect x="511.289" y="433.046"/>
                <rect x="532.004" y="495.191"/>
                <rect x="573.435" y="557.337"/>
                <rect x="594.15" y="619.483"/>
                <rect x="511.289" y="557.337"/>
                <rect x="532.004" y="619.483"/>
                <rect x="697.726" y="184.463"/>
                <rect x="718.441" y="246.609"/>
                <rect x="635.58" y="184.463"/>
                <rect x="656.295" y="246.609"/>
                <rect x="718.441" y="370.9"/>
                <rect x="656.295" y="370.9"/>
                <rect x="697.726" y="433.046"/>
                <rect x="718.441" y="495.191"/>
                <rect x="635.58" y="433.046"/>
                <rect x="656.295" y="495.191"/>
                <rect x="718.441" y="619.483"/>
                <rect x="635.58" y="557.337"/>
                <rect x="656.295" y="619.483"/>
                <rect x="822.017" y="184.463"/>
                <rect x="759.871" y="184.463"/>
                <rect x="780.587" y="246.609"/>
                <rect x="822.017" y="433.046"/>
                <rect x="780.587" y="370.9"/>
                <rect x="759.871" y="433.046"/>
                <rect x="780.587" y="495.191"/>
                <rect x="822.017" y="557.337"/>
                <rect x="842.732" y="619.483"/>
                <rect x="759.871" y="557.337"/>
                <rect x="780.587" y="619.483"/>
                <rect x="573.435" y="681.628"/>
                <rect x="594.15" y="743.774"/>
                <rect x="511.289" y="681.628"/>
                <rect x="532.004" y="743.774"/>
                <rect x="718.441" y="743.774"/>
                <rect x="635.58" y="681.628"/>
                <rect x="656.295" y="743.774"/>
                <rect x="822.017" y="681.628"/>
                <rect x="842.732" y="743.774"/>
                <rect x="759.871" y="681.628"/>
                <rect x="780.587" y="743.774"/>
                <rect x="822.017" y="805.919"/>
                <rect x="759.871" y="805.919"/>
            </g>
            <g class="g">
                <rect x="200.561" y="246.609"/>
                <rect x="221.276" y="184.463"/>
                <rect x="200.561" y="370.9"/>
                <rect x="221.276" y="308.754"/>
                <rect x="200.561" y="495.191"/>
                <rect x="221.276" y="433.046"/>
                <rect x="200.561" y="619.483"/>
                <rect x="221.276" y="557.337"/>
                <rect x="324.852" y="246.609"/>
                <rect x="345.567" y="184.463"/>
                <rect x="262.706" y="246.609"/>
                <rect x="283.422" y="184.463"/>
                <rect x="324.852" y="370.9"/>
                <rect x="345.567" y="308.754"/>
                <rect x="262.706" y="370.9"/>
                <rect x="283.422" y="308.754"/>
                <rect x="324.852" y="495.191"/>
                <rect x="345.567" y="433.046"/>
                <rect x="262.706" y="495.191"/>
                <rect x="283.422" y="433.046"/>
                <rect x="324.852" y="619.483"/>
                <rect x="345.567" y="557.337"/>
                <rect x="262.706" y="619.483"/>
                <rect x="283.422" y="557.337"/>
                <rect x="449.143" y="246.609"/>
                <rect x="469.858" y="184.463"/>
                <rect x="386.998" y="246.609"/>
                <rect x="407.713" y="184.463"/>
                <rect x="449.143" y="370.9"/>
                <rect x="469.858" y="308.754"/>
                <rect x="386.998" y="370.9"/>
                <rect x="407.713" y="308.754"/>
                <rect x="449.143" y="495.191"/>
                <rect x="386.998" y="495.191"/>
                <rect x="407.713" y="433.046"/>
                <rect x="449.143" y="619.483"/>
                <rect x="386.998" y="619.483"/>
                <rect x="407.713" y="557.337"/>
                <rect x="573.435" y="246.609"/>
                <rect x="594.15" y="184.463"/>
                <rect x="511.289" y="246.609"/>
                <rect x="532.004" y="184.463"/>
                <rect x="573.435" y="370.9"/>
                <rect x="511.289" y="370.9"/>
                <rect x="532.004" y="308.754"/>
                <rect x="573.435" y="495.191"/>
                <rect x="594.15" y="433.046"/>
                <rect x="511.289" y="495.191"/>
                <rect x="532.004" y="433.046"/>
                <rect x="573.435" y="619.483"/>
                <rect x="594.15" y="557.337"/>
                <rect x="511.289" y="619.483"/>
                <rect x="532.004" y="557.337"/>
                <rect x="697.726" y="246.609"/>
                <rect x="718.441" y="184.463"/>
                <rect x="635.58" y="246.609"/>
                <rect x="656.295" y="184.463"/>
                <rect x="697.726" y="370.9"/>
                <rect x="635.58" y="370.9"/>
                <rect x="697.726" y="495.191"/>
                <rect x="718.441" y="433.046"/>
                <rect x="635.58" y="495.191"/>
                <rect x="656.295" y="433.046"/>
                <rect x="718.441" y="557.337"/>
                <rect x="635.58" y="619.483"/>
                <rect x="656.295" y="557.337"/>
                <rect x="822.017" y="246.609"/>
                <rect x="759.871" y="246.609"/>
                <rect x="780.587" y="184.463"/>
                <rect x="822.017" y="370.9"/>
                <rect x="759.871" y="370.9"/>
                <rect x="759.871" y="495.191"/>
                <rect x="822.017" y="495.191"/>
                <rect x="780.587" y="433.046"/>
                <rect x="822.017" y="619.483"/>
                <rect x="842.732" y="557.337"/>
                <rect x="759.871" y="619.483"/>
                <rect x="780.587" y="557.337"/>
                <rect x="573.435" y="743.774"/>
                <rect x="594.15" y="681.628"/>
                <rect x="511.289" y="743.774"/>
                <rect x="532.004" y="681.628"/>
                <rect x="718.441" y="681.628"/>
                <rect x="635.58" y="743.774"/>
                <rect x="656.295" y="681.628"/>
                <rect x="718.441" y="805.919"/>
                <rect x="822.017" y="743.774"/>
                <rect x="842.732" y="681.628"/>
                <rect x="759.871" y="743.774"/>
                <rect x="780.587" y="681.628"/>
                <rect x="842.732" y="805.919"/>
                <rect x="780.587" y="805.919"/>
            </g>
            <g class="b">
                <rect x="241.991" y="184.463"/>
                <rect x="241.991" y="246.609"/>
                <rect x="179.846" y="184.463"/>
                <rect x="179.846" y="246.609"/>
                <rect x="241.991" y="308.754"/>
                <rect x="241.991" y="370.9"/>
                <rect x="179.846" y="308.754"/>
                <rect x="179.846" y="370.9"/>
                <rect x="241.991" y="433.046"/>
                <rect x="241.991" y="495.191"/>
                <rect x="179.846" y="433.046"/>
                <rect x="179.846" y="495.191"/>
                <rect x="241.991" y="557.337"/>
                <rect x="241.991" y="619.483"/>
                <rect x="179.846" y="557.337"/>
                <rect x="179.846" y="619.483"/>
                <rect x="366.282" y="184.463"/>
                <rect x="366.282" y="246.609"/>
                <rect x="304.137" y="184.463"/>
                <rect x="304.137" y="246.609"/>
                <rect x="366.282" y="308.754"/>
                <rect x="366.282" y="370.9"/>
                <rect x="304.137" y="308.754"/>
                <rect x="304.137" y="370.9"/>
                <rect x="366.282" y="433.046"/>
                <rect x="366.282" y="495.191"/>
                <rect x="304.137" y="433.046"/>
                <rect x="304.137" y="495.191"/>
                <rect x="366.282" y="557.337"/>
                <rect x="366.282" y="619.483"/>
                <rect x="304.137" y="557.337"/>
                <rect x="304.137" y="619.483"/>
                <rect x="490.574" y="184.463"/>
                <rect x="490.574" y="246.609"/>
                <rect x="428.428" y="184.463"/>
                <rect x="428.428" y="246.609"/>
                <rect x="490.574" y="308.754"/>
                <rect x="490.574" y="370.9"/>
                <rect x="428.428" y="308.754"/>
                <rect x="428.428" y="370.9"/>
                <rect x="490.574" y="433.046"/>
                <rect x="428.428" y="433.046"/>
                <rect x="428.428" y="495.191"/>
                <rect x="490.574" y="557.337"/>
                <rect x="428.428" y="557.337"/>
                <rect x="428.428" y="619.483"/>
                <rect x="614.865" y="184.463"/>
                <rect x="614.865" y="246.609"/>
                <rect x="552.719" y="184.463"/>
                <rect x="552.719" y="246.609"/>
                <rect x="614.865" y="370.9"/>
                <rect x="552.719" y="308.754"/>
                <rect x="552.719" y="370.9"/>
                <rect x="614.865" y="433.046"/>
                <rect x="614.865" y="495.191"/>
                <rect x="552.719" y="433.046"/>
                <rect x="552.719" y="495.191"/>
                <rect x="614.865" y="557.337"/>
                <rect x="614.865" y="619.483"/>
                <rect x="552.719" y="557.337"/>
                <rect x="552.719" y="619.483"/>
                <rect x="739.156" y="184.463"/>
                <rect x="739.156" y="246.609"/>
                <rect x="677.011" y="184.463"/>
                <rect x="677.011" y="246.609"/>
                <rect x="739.156" y="370.9"/>
                <rect x="677.011" y="370.9"/>
                <rect x="739.156" y="433.046"/>
                <rect x="739.156" y="495.191"/>
                <rect x="677.011" y="433.046"/>
                <rect x="677.011" y="495.191"/>
                <rect x="739.156" y="557.337"/>
                <rect x="739.156" y="619.483"/>
                <rect x="677.011" y="557.337"/>
                <rect x="801.302" y="184.463"/>
                <rect x="801.302" y="246.609"/>
                <rect x="801.302" y="370.9"/>
                <rect x="801.302" y="433.046"/>
                <rect x="801.302" y="495.191"/>
                <rect x="801.302" y="557.337"/>
                <rect x="801.302" y="619.483"/>
                <rect x="614.865" y="681.628"/>
                <rect x="614.865" y="743.774"/>
                <rect x="552.719" y="681.628"/>
                <rect x="552.719" y="743.774"/>
                <rect x="739.156" y="681.628"/>
                <rect x="739.156" y="743.774"/>
                <rect x="739.156" y="805.919"/>
                <rect x="801.302" y="681.628"/>
                <rect x="801.302" y="743.774"/>
                <rect x="801.302" y="805.919"/>
            </g>
        </g>
        <mask id="mask">
            <rect width="1024" height="1024" fill="white"/>
            <g fill="black">
                <path d="M680.648,923.461L575.416,923.461C510.994,923.461 458.577,871.056 458.577,806.608L458.577,425.873C458.577,361.425 510.997,309.018 575.416,309.018L830.191,309.018C894.613,309.018 947.03,361.425 947.03,425.873L947.03,544.226L947.03,544.364L946.16,871.83C946.084,900.571 922.741,923.817 894.001,923.775L680.648,923.461ZM680.686,871.378L894.077,871.692L894.946,544.226L894.946,425.873C894.946,390.152 865.897,361.102 830.191,361.102L575.416,361.102C539.711,361.102 510.66,390.152 510.66,425.873L510.66,806.608C510.66,842.329 539.709,871.378 575.416,871.378L680.686,871.378Z"/>
                <path d="M862.001,535.033C900.136,535.033 931.161,566.068 931.161,604.204L931.161,839.613C931.161,877.752 900.143,908.775 862.001,908.775L737.716,908.775C699.568,908.775 668.552,877.751 668.552,839.613L668.552,604.206C668.552,566.072 699.571,535.033 737.716,535.033L862.001,535.033ZM862.001,572.116L737.716,572.116C720.022,572.116 705.636,586.517 705.636,604.206L705.636,839.613C705.636,857.303 720.022,871.692 737.716,871.692L862.001,871.692C879.691,871.692 894.077,857.303 894.077,839.613L894.077,604.204C894.077,586.515 879.69,572.116 862.001,572.116Z"/>
            </g>
        </mask>
        <g>
            <path class="frame" d="M458.521,660.1L191.558,660.1C185.353,660.1 180.3,655.044 180.3,648.839L180.3,214.505C180.3,208.302 185.354,203.247 191.558,203.247L831.548,203.247C837.754,203.247 842.806,208.302 842.806,214.505L842.806,309.629C861.55,311.843 879.113,317.985 894.05,328.083L894.05,214.505C894.05,180.038 866.002,152.001 831.546,152.001L191.558,152.001C157.102,152.001 129.054,180.037 129.054,214.505L129.054,648.838C129.054,683.306 157.102,711.345 191.558,711.345L406.072,711.345L406.072,795.132L372.244,795.132C351.025,795.132 333.809,812.335 333.809,833.566C333.809,854.798 351.025,872.001 372.244,872.001L480.138,872.001C466.652,853.035 458.521,830.013 458.521,805.016L458.521,660.1Z"/>
            <path class="frame" d="M669.125,834.833L669.125,779.472L561.905,779.472L561.905,425.873C561.905,418.414 567.96,412.346 575.416,412.346L830.192,412.346C837.648,412.346 843.702,418.414 843.702,425.873L843.702,535.307L862.897,535.307C874.631,535.307 885.491,538.696 894.946,544.226L894.946,425.873C894.946,390.152 865.897,361.102 830.191,361.102L575.416,361.102C539.711,361.102 510.66,390.152 510.66,425.873L510.66,806.608C510.66,842.329 539.709,871.378 575.416,871.378L680.686,871.378C673.63,861.245 669.125,847.125 669.125,834.833Z"/>
            <path class="frame" d="M862.001,572.116L737.716,572.116C720.022,572.116 705.636,586.517 705.636,604.206L705.636,839.613C705.636,857.303 720.022,871.692 737.716,871.692L862.001,871.692C879.691,871.692 894.077,857.303 894.077,839.613L894.077,604.204C894.077,586.515 879.69,572.116 862.001,572.116ZM744.069,610.549L855.643,610.549L855.643,814.041L744.069,814.041L744.069,610.549ZM799.871,856.103C796.341,856.103 793.189,854.675 790.788,852.474C788.058,849.997 786.307,846.516 786.307,842.55C786.307,835.07 792.364,829.014 799.871,829.014C807.327,829.014 813.382,835.07 813.382,842.55C813.382,846.516 811.629,849.995 808.928,852.474C806.524,854.677 803.372,856.103 799.871,856.103Z"/>
            <path class="button" d="M799.871,856.103C796.341,856.103 793.189,854.675 790.788,852.474C788.058,849.997 786.307,846.516 786.307,842.55C786.307,835.07 792.364,829.014 799.871,829.014C807.327,829.014 813.382,835.07 813.382,842.55C813.382,846.516 811.629,849.995 808.928,852.474C806.524,854.677 803.372,856.103 799.871,856.103Z"/>
        </g>
    </g>
</svg>